<svg xmlns="http://www.w3.org/2000/svg" transform="scale(1,1)" viewBox="0 0 100 104.58375483804441" style="height: auto;"><g transform="translate(-9.667183435887134, -7.4569514053218935) scale(1.8642378513304734)"><path fill="#3f5f41" d="M46.7,36.4c-0.5,0.1-1.5,0.4-1.7,0.1c-0.1-0.1-0.2-0.2-0.2-0.3c-1.7-1.7-4.4-0.8-4.7-0.7     c-4.6,1.6-9.6,2.1-14.7,1.4c-0.6-0.1-3.4-0.4-4.9-1.6c-2.1-1.6-4.2-5.4-1-7.8c3.1-2.3,8.4-0.6,8.4-0.6c1,0.2,2.1,0.5,3.1,0.6     c7.2,1,12.4-1.5,13.4-3.3c1-1.7,0.5-4.1-1.7-6.2c-2.1-2.1-5.8-3.8-10-3.9c-3.6-0.1-6.9,0.9-9.2,2.2c-0.8,0.5-1.5,1-2,1.5     c-1.1,1-2.8,3.2-4.9,4.2c-3.3,1.5-6.7,3.7-9.6,6.3C5.2,29.9,5,28,5.3,26.7c1-5.5,3.7-10.5,7.7-14.5C18.3,6.9,25.3,4,32.8,4     c7.5,0,14.5,2.9,19.8,8.2c2.1,2.1,4,4.3,5.1,6.9C60.9,27.1,57.3,33.6,46.7,36.4z M53.7,42.7c-0.7-0.6-1.5-0.9-2.4-1.1     c0,0-1.9-0.4-3.7,0.8c-0.6,0.4-0.1,2.2-3.7,4.2c-8.4,4.7-14.8,4.2-23,3c-1-0.1-1.7-0.9-1.5-1.7c0-0.1,0-0.1,0-0.2     c0.1-0.8,1-1.3,1.9-1.1c4.2,0.7,8.4,0.7,12.4,0.1c0,0,1.6-0.3,1.4-1.2c-0.2-1-1.7-0.8-1.7-0.8c-3.8,0.5-7.8,0.5-11.9-0.2     c-0.9-0.1-1.5-0.9-1.4-1.7c0,0,0-0.1,0-0.1c0,0,0-0.1,0-0.1c0.1-0.8,0.9-1.3,1.7-1.1c3.8,0.7,7.5,0.8,11.1,0.4     c0,0,1.4-0.2,1.2-1.2c-0.1-0.8-1.5-0.7-1.5-0.7c-3.4,0.4-7,0.2-10.6-0.5c-3-0.6-5.6-2.4-6.8-5.3c-0.8-1.8-0.9-4-1.2-4.4     c-0.6-0.7-1.5-0.3-1.7-0.2c-2.2,1.6-4.3,3.5-5.8,5.8c-1.1,1.7-0.9,4.5-0.5,5.5c1.4,4.1,3.7,7.8,6.8,11c5.3,5.3,12.3,8.2,19.8,8.2     c8.3,0,16.2-3.7,21.5-10.1C56.1,47.7,55.8,44.5,53.7,42.7z"></path><path fill="#3f5f41" d="M46.7,36.4c-0.5,0.1-1.5,0.4-1.7,0.1c-0.1-0.1-0.2-0.2-0.2-0.3c-1.7-1.7-4.4-0.8-4.7-0.7     c-4.6,1.6-9.6,2.1-14.7,1.4c-0.6-0.1-3.4-0.4-4.9-1.6c-2.1-1.6-4.2-5.4-1-7.8c3.1-2.3,8.4-0.6,8.4-0.6c1,0.2,2.1,0.5,3.1,0.6     c7.2,1,12.4-1.5,13.4-3.3c1-1.7,0.5-4.1-1.7-6.2c-2.1-2.1-5.8-3.8-10-3.9c-3.6-0.1-6.9,0.9-9.2,2.2c-0.8,0.5-1.5,1-2,1.5     c-1.1,1-2.8,3.2-4.9,4.2c-3.3,1.5-6.7,3.7-9.6,6.3C5.2,29.9,5,28,5.3,26.7c1-5.5,3.7-10.5,7.7-14.5C18.3,6.9,25.3,4,32.8,4     c7.5,0,14.5,2.9,19.8,8.2c2.1,2.1,4,4.3,5.1,6.9C60.9,27.1,57.3,33.6,46.7,36.4z M53.7,42.7c-0.7-0.6-1.5-0.9-2.4-1.1     c0,0-1.9-0.4-3.7,0.8c-0.6,0.4-0.1,2.2-3.7,4.2c-8.4,4.7-14.8,4.2-23,3c-1-0.1-1.7-0.9-1.5-1.7c0-0.1,0-0.1,0-0.2     c0.1-0.8,1-1.3,1.9-1.1c4.2,0.7,8.4,0.7,12.4,0.1c0,0,1.6-0.3,1.4-1.2c-0.2-1-1.7-0.8-1.7-0.8c-3.8,0.5-7.8,0.5-11.9-0.2     c-0.9-0.1-1.5-0.9-1.4-1.7c0,0,0-0.1,0-0.1c0,0,0-0.1,0-0.1c0.1-0.8,0.9-1.3,1.7-1.1c3.8,0.7,7.5,0.8,11.1,0.4     c0,0,1.4-0.2,1.2-1.2c-0.1-0.8-1.5-0.7-1.5-0.7c-3.4,0.4-7,0.2-10.6-0.5c-3-0.6-5.6-2.4-6.8-5.3c-0.8-1.8-0.9-4-1.2-4.4     c-0.6-0.7-1.5-0.3-1.7-0.2c-2.2,1.6-4.3,3.5-5.8,5.8c-1.1,1.7-0.9,4.5-0.5,5.5c1.4,4.1,3.7,7.8,6.8,11c5.3,5.3,12.3,8.2,19.8,8.2     c8.3,0,16.2-3.7,21.5-10.1C56.1,47.7,55.8,44.5,53.7,42.7z"></path></g></svg>
