<svg xmlns="http://www.w3.org/2000/svg" version="1.1" id="Layer_1" x="0px" y="0px" width="100%" viewBox="0 0 431 431" >
<path fill="#95BAA8" opacity="1.000000" stroke="none" d=" M65.000000,432.000000   C44.312439,432.000000 23.624876,432.000000 2.469413,431.534973   C2.001008,287.713318 2.000504,144.356659 2.000000,1.000000   C145.276047,1.000000 288.552094,1.000000 431.914062,1.000000   C431.914062,144.551910 431.914062,288.103882 431.914062,432.000000   C354.312775,432.000000 276.625061,432.000000 198.336670,431.638702   C197.177994,423.905884 196.484436,416.541595 196.092514,409.161255   C195.444916,396.966766 194.991943,384.761902 194.409027,372.137726   C193.912399,365.264252 193.631973,358.797607 192.986145,352.367645   C190.041428,323.049316 184.305176,294.598083 166.897339,269.615417   C186.853989,248.534103 181.131363,217.097336 168.846695,201.065948   C168.058334,203.322662 167.552811,205.431671 166.615875,207.327454   C163.826294,212.971878 161.250549,218.778931 157.860733,224.052902   C154.800781,228.813614 149.854279,231.075256 144.046722,230.363281   C140.765991,229.961105 137.396301,229.448532 134.327240,228.293411   C116.309143,221.511749 98.486664,220.667755 80.349007,228.233017   C64.249702,234.948059 52.565830,245.171738 49.413502,263.097687   C48.817097,266.489197 48.880672,269.996765 48.626789,273.636139   C40.107635,274.517853 34.660900,279.376373 33.300850,287.268799   C32.129871,294.064087 31.947842,301.271515 32.766499,308.124908   C35.861721,334.036560 45.342251,358.058960 55.784554,381.725769   C56.484432,383.311981 57.826565,384.614777 58.890217,386.270569   C58.910458,386.491730 58.945522,386.934540 58.937004,387.313049   C60.563000,393.470215 62.197514,399.248871 63.686569,405.287415   C63.804127,406.785278 64.067146,408.023254 64.432144,409.665405   C64.974350,412.772217 65.414589,415.474854 65.816269,418.331848   C65.777702,418.486176 65.782333,418.804352 65.604515,419.185791   C65.284462,423.711456 65.142227,427.855743 65.000000,432.000000  M289.005737,163.494385   C281.005585,172.205109 272.757629,180.703171 265.060120,189.673569   C251.612381,205.345062 243.515121,223.273010 243.931290,244.339859   C244.164490,256.143494 243.371048,253.846588 253.505371,254.094757   C255.503693,254.143692 257.504242,254.101883 259.503754,254.101791   C278.998993,254.100906 298.494293,254.111633 317.989471,254.083130   C320.223053,254.079865 322.922333,254.699341 322.870667,250.925262   C322.615265,232.277161 331.388367,217.408173 342.707092,203.588470   C351.464722,192.895706 360.750641,182.569733 368.743591,171.328323   C397.600494,130.743637 389.516815,74.396553 349.730255,45.664265   C313.539185,19.528519 273.636627,18.883711 233.746033,35.613197   C195.802948,51.525917 181.184738,85.294579 180.290543,122.140282   C180.204712,125.676857 181.889221,126.219971 184.864716,126.207581   C204.193008,126.127075 223.521805,126.172546 242.850403,126.149071   C244.152039,126.147491 245.453400,125.919296 247.054642,125.768211   C247.345001,123.798187 247.612534,122.008797 247.872009,120.218239   C249.501877,108.971191 255.553619,101.151901 266.291016,97.402771   C276.880524,93.705284 287.349640,94.580849 297.282166,99.787674   C306.405060,104.570084 310.409729,112.723625 309.445007,122.979843   C307.945831,138.917877 299.591705,151.363876 289.005737,163.494385  M322.537994,326.932251   C327.522766,317.893494 328.553070,308.254120 326.269409,298.350006   C321.574341,277.988159 302.098969,264.965179 278.968964,267.211060   C261.979797,268.860687 248.716492,276.862152 242.565613,293.460876   C236.963501,308.578735 239.433151,322.890839 250.571106,334.818329   C269.964569,355.586517 307.122467,351.666718 322.537994,326.932251  z"/>
<path fill="#F5F5F4" opacity="1.000000" stroke="none" d=" M65.854843,418.177490   C65.414589,415.474854 64.974350,412.772217 64.539276,409.300415   C64.306969,407.363342 64.069496,406.195435 63.832027,405.027527   C62.197514,399.248871 60.563000,393.470215 59.400940,387.306763   C64.344139,387.251160 68.809906,387.752777 73.286423,387.881958   C105.443382,388.809753 137.455338,387.855377 168.912170,380.495300   C167.952011,383.596069 166.991684,386.319946 165.670883,389.059326   C160.721222,390.966919 159.885361,393.055847 162.012421,397.429443   C155.847580,409.974213 149.834656,422.210907 140.000000,432.000000   C122.979103,432.000000 105.958214,432.000000 88.487511,431.577209   C87.228836,426.598969 86.419044,422.043732 85.611458,417.488098   C85.176544,415.034760 83.918030,414.271881 81.386345,414.884949   C76.244896,416.129974 71.035957,417.096313 65.854843,418.177490  z"/>
<path fill="#FCDCBD" opacity="1.000000" stroke="none" d=" M140.468628,432.000000   C149.834656,422.210907 155.847580,409.974213 162.320557,397.290253   C163.825104,394.218231 164.928223,391.631012 166.031342,389.043823   C166.991684,386.319946 167.952011,383.596069 168.963135,380.419189   C169.013931,379.966217 169.114059,379.815704 169.292770,379.628662   C169.651764,378.954163 169.832047,378.466675 170.006241,377.989258   C170.000153,377.999298 169.988205,378.019409 170.263977,377.819458   C172.555679,375.524384 172.337463,373.647583 169.995239,371.989563   C170.001953,372.000061 170.019226,372.018036 169.882568,371.813660   C169.538300,371.348694 169.286423,371.142090 168.994781,370.994690   C168.999268,370.999939 169.009796,371.008972 168.956635,370.696838   C168.267761,369.586914 167.632034,368.789093 166.998077,367.995636   C166.999847,368.000000 167.006332,368.006805 167.014114,367.630127   C167.017273,366.500061 167.012650,365.746643 167.003708,364.996216   C166.999390,364.999237 166.990280,365.004303 167.279312,365.141144   C168.378174,365.519287 169.188019,365.760590 169.998932,366.000946   C170.000000,366.000000 169.998199,366.002686 170.080032,366.324982   C172.318436,369.755737 174.440689,368.994904 175.731659,366.138733   C176.648361,364.110657 176.684052,361.671387 177.032776,359.403320   C177.359421,357.278748 177.580597,355.137939 177.848190,353.004272   C179.394409,353.895355 180.046585,354.825653 179.909042,355.619080   C178.975647,361.003662 181.585342,363.989227 186.334427,365.721161   C186.680664,365.847412 186.816940,366.549377 186.677094,367.013519   C182.872162,367.746948 182.606079,369.471985 184.084381,372.439087   C184.749100,373.773193 184.828033,376.171814 184.046204,377.320984   C180.550827,382.458649 176.419098,387.211182 176.699097,393.997864   C176.717728,394.449219 176.487167,395.062592 176.155731,395.354034   C171.001236,399.886810 173.172455,404.829773 175.237564,410.106079   C171.121506,417.622437 167.060745,424.811218 163.000000,432.000000   C155.645752,432.000000 148.291504,432.000000 140.468628,432.000000  z"/>
<path fill="#F3F3F3" opacity="1.000000" stroke="none" d=" M194.456955,372.561432   C194.991943,384.761902 195.444916,396.966766 196.092514,409.161255   C196.484436,416.541595 197.177994,423.905884 197.868011,431.638702   C192.977905,432.000000 187.955811,432.000000 182.586136,431.591248   C180.387863,423.883484 178.537170,416.584473 176.768250,408.895264   C180.864349,398.234528 185.067978,388.031616 188.776505,377.651764   C189.876221,374.573822 191.246597,372.802246 194.456955,372.561432  z"/>
<path fill="#CCCCCC" opacity="1.000000" stroke="none" d=" M1.500000,1.000000   C2.000504,144.356659 2.001008,287.713318 2.000754,431.534973   C1.666663,430.666656 1.043355,429.333649 1.041931,427.999969   C0.991771,381.000000 1.000000,334.000000 1.000000,287.000000   C1.000000,191.666672 1.000000,96.333336 1.500000,1.000000  z"/>
<path fill="#FCDCBD" opacity="1.000000" stroke="none" d=" M65.816269,418.331848   C71.035957,417.096313 76.244896,416.129974 81.386345,414.884949   C83.918030,414.271881 85.176544,415.034760 85.611458,417.488098   C86.419044,422.043732 87.228836,426.598969 88.018852,431.577209   C81.645599,432.000000 75.291206,432.000000 68.450485,431.571960   C67.236893,427.030701 66.509613,422.917542 65.782333,418.804352   C65.782333,418.804352 65.777702,418.486176 65.816269,418.331848  z"/>
<path fill="#58422D" opacity="1.000000" stroke="none" d=" M176.686493,409.285461   C178.537170,416.584473 180.387863,423.883484 182.119278,431.591248   C175.978851,432.000000 169.957703,432.000000 163.468262,432.000000   C167.060745,424.811218 171.121506,417.622437 175.488403,410.087860   C176.091858,409.589844 176.389175,409.437653 176.686493,409.285461  z"/>
<path fill="#CCCCCC" opacity="1.000000" stroke="none" d=" M65.604523,419.185791   C66.509613,422.917542 67.236893,427.030701 67.982086,431.571960   C67.250000,432.000000 66.500000,432.000000 65.375000,432.000000   C65.142227,427.855743 65.284462,423.711456 65.604523,419.185791  z"/>
<path fill="#FEFFFE" opacity="1.000000" stroke="none" d=" M289.240753,163.228333   C299.591705,151.363876 307.945831,138.917877 309.445007,122.979843   C310.409729,112.723625 306.405060,104.570084 297.282166,99.787674   C287.349640,94.580849 276.880524,93.705284 266.291016,97.402771   C255.553619,101.151901 249.501877,108.971191 247.872009,120.218239   C247.612534,122.008797 247.345001,123.798187 247.054642,125.768211   C245.453400,125.919296 244.152039,126.147491 242.850403,126.149071   C223.521805,126.172546 204.193008,126.127075 184.864716,126.207581   C181.889221,126.219971 180.204712,125.676857 180.290543,122.140282   C181.184738,85.294579 195.802948,51.525917 233.746033,35.613197   C273.636627,18.883711 313.539185,19.528519 349.730255,45.664265   C389.516815,74.396553 397.600494,130.743637 368.743591,171.328323   C360.750641,182.569733 351.464722,192.895706 342.707092,203.588470   C331.388367,217.408173 322.615265,232.277161 322.870667,250.925262   C322.922333,254.699341 320.223053,254.079865 317.989471,254.083130   C298.494293,254.111633 278.998993,254.100906 259.503754,254.101791   C257.504242,254.101883 255.503693,254.143692 253.505371,254.094757   C243.371048,253.846588 244.164490,256.143494 243.931290,244.339859   C243.515121,223.273010 251.612381,205.345062 265.060120,189.673569   C272.757629,180.703171 281.005585,172.205109 289.240753,163.228333  z"/>
<path fill="#543F2A" opacity="1.000000" stroke="none" d=" M58.869976,386.049408   C57.826565,384.614777 56.484432,383.311981 55.784554,381.725769   C45.342251,358.058960 35.861721,334.036560 32.766499,308.124908   C31.947842,301.271515 32.129871,294.064087 33.300850,287.268799   C34.660900,279.376373 40.107635,274.517853 48.626789,273.636139   C48.880672,269.996765 48.817097,266.489197 49.413502,263.097687   C52.565830,245.171738 64.249702,234.948059 80.349007,228.233017   C98.486664,220.667755 116.309143,221.511749 134.327240,228.293411   C137.396301,229.448532 140.765991,229.961105 144.046722,230.363281   C149.854279,231.075256 154.800781,228.813614 157.860733,224.052902   C161.250549,218.778931 163.826294,212.971878 166.615875,207.327454   C167.552811,205.431671 168.058334,203.322662 168.846695,201.065948   C181.131363,217.097336 186.853989,248.534103 166.629440,269.789185   C160.279938,274.506104 154.686981,279.348053 148.354401,282.854095   C134.219971,290.679596 118.626953,294.333954 102.826935,297.060333   C96.666801,298.123260 90.467819,298.961060 84.581680,299.856476   C84.581680,309.574310 84.581680,318.733246 84.581680,328.202820   C82.244400,327.002960 80.408310,325.878815 78.437920,325.090210   C75.268082,323.821594 71.592926,323.615753 69.965797,326.838379   C68.280899,330.175476 67.108444,334.344788 67.554901,337.919891   C67.750557,339.486694 72.418709,341.073334 75.245216,341.566589   C77.941528,342.037109 80.883896,341.097656 84.823822,340.653351   C79.755257,350.663330 75.467133,359.849182 70.516022,368.662567   C67.110016,374.725586 62.784504,380.272064 58.869976,386.049408  z"/>
<path fill="#FCDBBC" opacity="1.000000" stroke="none" d=" M58.890217,386.270569   C62.784504,380.272064 67.110016,374.725586 70.516022,368.662567   C75.467133,359.849182 79.755257,350.663330 84.823822,340.653351   C80.883896,341.097656 77.941528,342.037109 75.245216,341.566589   C72.418709,341.073334 67.750557,339.486694 67.554901,337.919891   C67.108444,334.344788 68.280899,330.175476 69.965797,326.838379   C71.592926,323.615753 75.268082,323.821594 78.437920,325.090210   C80.408310,325.878815 82.244400,327.002960 84.581680,328.202820   C84.581680,318.733246 84.581680,309.574310 84.581680,299.856476   C90.467819,298.961060 96.666801,298.123260 102.826935,297.060333   C118.626953,294.333954 134.219971,290.679596 148.354401,282.854095   C154.686981,279.348053 160.279938,274.506104 166.476410,270.096680   C184.305176,294.598083 190.041428,323.049316 192.986145,352.367645   C193.631973,358.797607 193.912399,365.264252 194.409027,372.137726   C191.246597,372.802246 189.876221,374.573822 188.776505,377.651764   C185.067978,388.031616 180.864349,398.234528 176.768265,408.895264   C176.389175,409.437653 176.091858,409.589844 175.543701,409.760254   C173.172455,404.829773 171.001236,399.886810 176.155731,395.354034   C176.487167,395.062592 176.717728,394.449219 176.699097,393.997864   C176.419098,387.211182 180.550827,382.458649 184.046204,377.320984   C184.828033,376.171814 184.749100,373.773193 184.084381,372.439087   C182.606079,369.471985 182.872162,367.746948 186.916565,367.077881   C187.529770,367.112396 188.010208,367.238953 188.048645,367.565308   C189.067444,368.594635 190.047791,369.297607 191.095886,370.182281   C191.275314,370.444580 191.388870,370.590668 191.498169,370.587555   C191.609695,370.584381 191.823654,370.410217 191.810486,370.352661   C191.551788,369.222443 191.266510,368.098358 190.992844,366.983459   C190.999054,366.993958 191.015289,367.013855 190.780151,366.775848   C186.268448,363.177063 180.766922,360.815125 181.409119,353.715607   C181.499893,352.712067 178.781967,351.454498 177.364075,350.314514   C176.593185,351.748444 175.387344,353.113281 175.146347,354.631317   C174.710007,357.379761 174.971176,360.230835 174.714035,363.018127   C174.449677,365.883942 172.896973,367.104645 169.998199,366.002686   C169.998199,366.002686 170.000000,366.000000 169.869644,365.743042   C168.822952,365.325470 167.906616,365.164886 166.990280,365.004272   C166.990280,365.004303 166.999390,364.999237 166.730560,365.058472   C166.643250,366.080719 166.824799,367.043762 167.006332,368.006805   C167.006332,368.006805 166.999847,368.000000 167.003525,368.334808   C167.674728,369.449402 168.342255,370.229187 169.009796,371.008972   C169.009796,371.008972 168.999268,370.999939 169.126389,371.203064   C169.464188,371.665863 169.719437,371.869812 170.019226,372.018036   C170.019226,372.018036 170.001953,372.000061 169.994476,372.421021   C169.987396,374.567780 169.987793,376.293579 169.988205,378.019409   C169.988205,378.019409 170.000153,377.999298 169.828735,378.185425   C169.476242,378.852905 169.295151,379.334320 169.114059,379.815704   C169.114059,379.815704 169.013931,379.966217 168.962982,380.042297   C137.455338,387.855377 105.443382,388.809753 73.286423,387.881958   C68.809906,387.752777 64.344139,387.251160 59.409458,386.928223   C58.945522,386.934540 58.910458,386.491730 58.890217,386.270569  M119.459343,332.334595   C123.532753,334.386230 125.536346,332.053619 125.174980,328.592804   C124.760529,324.623566 123.299934,320.648804 121.613342,316.990112   C121.032852,315.730927 118.046249,314.462921 116.812233,314.929016   C115.509140,315.421143 113.968674,318.234924 114.310379,319.584076   C115.376198,323.792267 117.282944,327.787506 119.459343,332.334595  M175.734161,307.861816   C174.908295,306.065857 174.450882,303.912933 173.153473,302.573792   C171.842499,301.220612 169.699188,300.673828 167.920517,299.773804   C167.045212,301.579590 165.683380,303.320801 165.432663,305.209503   C165.186417,307.064575 165.786072,309.184509 166.517654,310.983612   C167.852463,314.266144 169.025131,319.022949 173.506317,317.907623   C178.296921,316.715271 176.384079,312.100555 175.734161,307.861816  M159.341782,342.514771   C165.805283,340.614136 172.063766,339.442169 176.041428,348.717896   C176.111359,342.277313 173.201889,339.950195 168.970581,339.040222   C161.881226,337.515594 146.717834,344.826538 143.114044,351.250244   C148.226059,348.465546 153.417160,345.637756 159.341782,342.514771  z"/>
<path fill="#FEFEFE" opacity="1.000000" stroke="none" d=" M322.350037,327.251160   C307.122467,351.666718 269.964569,355.586517 250.571106,334.818329   C239.433151,322.890839 236.963501,308.578735 242.565613,293.460876   C248.716492,276.862152 261.979797,268.860687 278.968964,267.211060   C302.098969,264.965179 321.574341,277.988159 326.269409,298.350006   C328.553070,308.254120 327.522766,317.893494 322.350037,327.251160  z"/>
<path fill="#CCCCCC" opacity="1.000000" stroke="none" d=" M63.686569,405.287415   C64.069496,406.195435 64.306969,407.363342 64.437302,408.896240   C64.067146,408.023254 63.804127,406.785278 63.686569,405.287415  z"/>
<path fill="#6A533D" opacity="1.000000" stroke="none" d=" M165.670868,389.059326   C164.928223,391.631012 163.825104,394.218231 162.413849,396.944641   C159.885361,393.055847 160.721222,390.966919 165.670868,389.059326  z"/>
<path fill="#DFC3A7" opacity="1.000000" stroke="none" d=" M170.080032,366.324982   C172.896973,367.104645 174.449677,365.883942 174.714035,363.018127   C174.971176,360.230835 174.710007,357.379761 175.146347,354.631317   C175.387344,353.113281 176.593185,351.748444 177.364075,350.314514   C178.781967,351.454498 181.499893,352.712067 181.409119,353.715607   C180.766922,360.815125 186.268448,363.177063 190.402588,366.779114   C189.510162,367.093262 188.760193,367.166107 188.010208,367.238953   C188.010208,367.238953 187.529770,367.112396 187.290314,367.048035   C186.816940,366.549377 186.680664,365.847412 186.334427,365.721161   C181.585342,363.989227 178.975647,361.003662 179.909042,355.619080   C180.046585,354.825653 179.394409,353.895355 177.848190,353.004272   C177.580597,355.137939 177.359421,357.278748 177.032776,359.403320   C176.684052,361.671387 176.648361,364.110657 175.731659,366.138733   C174.440689,368.994904 172.318436,369.755737 170.080032,366.324982  z"/>
<path fill="#DFC3A7" opacity="1.000000" stroke="none" d=" M170.263977,377.819458   C169.987793,376.293579 169.987396,374.567780 169.987762,372.410492   C172.337463,373.647583 172.555679,375.524384 170.263977,377.819458  z"/>
<path fill="#DFC3A7" opacity="1.000000" stroke="none" d=" M168.956635,370.696838   C168.342255,370.229187 167.674728,369.449402 167.001770,368.330444   C167.632034,368.789093 168.267761,369.586914 168.956635,370.696838  z"/>
<path fill="#DFC3A7" opacity="1.000000" stroke="none" d=" M167.014114,367.630127   C166.824799,367.043762 166.643250,366.080719 166.734863,365.055450   C167.012650,365.746643 167.017273,366.500061 167.014114,367.630127  z"/>
<path fill="#DFC3A7" opacity="1.000000" stroke="none" d=" M167.279312,365.141113   C167.906616,365.164886 168.822952,365.325470 169.868561,365.743958   C169.188019,365.760590 168.378174,365.519287 167.279312,365.141113  z"/>
<path fill="#DFC3A7" opacity="1.000000" stroke="none" d=" M169.292770,379.628662   C169.295151,379.334320 169.476242,378.852905 169.834839,378.175354   C169.832047,378.466675 169.651764,378.954163 169.292770,379.628662  z"/>
<path fill="#DFC3A7" opacity="1.000000" stroke="none" d=" M169.882568,371.813660   C169.719437,371.869812 169.464188,371.665863 169.121887,371.197815   C169.286423,371.142090 169.538300,371.348694 169.882568,371.813660  z"/>
<path fill="#58422D" opacity="1.000000" stroke="none" d=" M119.161499,332.099945   C117.282944,327.787506 115.376198,323.792267 114.310379,319.584076   C113.968674,318.234924 115.509140,315.421143 116.812233,314.929016   C118.046249,314.462921 121.032852,315.730927 121.613342,316.990112   C123.299934,320.648804 124.760529,324.623566 125.174980,328.592804   C125.536346,332.053619 123.532753,334.386230 119.161499,332.099945  z"/>
<path fill="#58422D" opacity="1.000000" stroke="none" d=" M175.829956,308.238556   C176.384079,312.100555 178.296921,316.715271 173.506317,317.907623   C169.025131,319.022949 167.852463,314.266144 166.517654,310.983612   C165.786072,309.184509 165.186417,307.064575 165.432663,305.209503   C165.683380,303.320801 167.045212,301.579590 167.920502,299.773804   C169.699188,300.673828 171.842499,301.220612 173.153473,302.573792   C174.450882,303.912933 174.908295,306.065857 175.829956,308.238556  z"/>
<path fill="#6A533D" opacity="1.000000" stroke="none" d=" M158.975021,342.662384   C153.417160,345.637756 148.226059,348.465546 143.114044,351.250244   C146.717834,344.826538 161.881226,337.515594 168.970581,339.040222   C173.201889,339.950195 176.111359,342.277313 176.041428,348.717896   C172.063766,339.442169 165.805283,340.614136 158.975021,342.662384  z"/>
<path fill="#FCDCBD" opacity="1.000000" stroke="none" d=" M188.048645,367.565308   C188.760193,367.166107 189.510162,367.093262 190.637726,367.017151   C191.015289,367.013855 190.999054,366.993958 190.999359,367.362427   C191.009171,368.487488 191.018661,369.244049 191.028152,370.000610   C190.047791,369.297607 189.067444,368.594635 188.048645,367.565308  z"/>
<path fill="#DFC3A7" opacity="1.000000" stroke="none" d=" M191.095886,370.182281   C191.018661,369.244049 191.009171,368.487488 190.993149,367.351959   C191.266510,368.098358 191.551788,369.222443 191.810486,370.352661   C191.823654,370.410217 191.609695,370.584381 191.498169,370.587555   C191.388870,370.590668 191.275314,370.444580 191.095886,370.182281  z"/>
</svg>
